<svg width="581" height="532" viewBox="0 0 581 532" fill="none" xmlns="http://www.w3.org/2000/svg">
<path fill-rule="evenodd" clip-rule="evenodd" d="M242.763 24.2204V48.4409H218.543H194.322V72.6613V96.8818H170.102H145.881V121.102V145.323H121.661H97.4404V169.543V193.764H73.2199H48.9995V217.984V242.204H24.779H0.558594V314.441V386.677H24.779H48.9995V410.898V435.118H73.2199H97.4404V459.339V483.559H145.881H194.322V507.78V532H291.204H388.086V507.786V483.574L436.314 483.353L484.543 483.134L484.769 459.126L484.994 435.118H508.763H532.532L532.757 411.11L532.984 387.102L556.992 386.876L581 386.651V314.441V242.231L556.992 242.006L532.984 241.78L532.757 217.772L532.532 193.764H508.763H484.994L484.769 169.756L484.543 145.748L460.535 145.522L436.527 145.296V121.089V96.8818H412.306H388.086V72.6613V48.4409H363.865H339.645V24.2204V0H291.204H242.763V24.2204Z" fill="#ECECEC"/>
<rect x="435.678" y="386.677" width="48.4409" height="48.4409" fill="#CACACA"/>
<rect x="435.678" y="192.914" width="48.4409" height="48.4409" fill="#CACACA"/>
<rect x="291.205" y="241.354" width="48.4409" height="48.4409" fill="#CACACA"/>
<rect x="194.322" y="96.8818" width="48.4409" height="48.4409" fill="#CACACA"/>
<rect x="291.205" y="96.8818" width="48.4409" height="48.4409" fill="#DDDDDD"/>
<rect x="338.795" y="96.8818" width="49.2907" height="48.4409" fill="#DDDDDD"/>
<rect x="338.795" y="144.473" width="48.4409" height="48.4409" fill="#DDDDDD"/>
<rect x="338.795" y="192.064" width="48.4409" height="48.4409" fill="#DDDDDD"/>
<rect x="338.795" y="239.655" width="48.4409" height="48.4409" fill="#DDDDDD"/>
<rect x="338.795" y="287.246" width="48.4409" height="48.4409" fill="#DDDDDD"/>
<rect x="338.795" y="334.837" width="48.4409" height="48.4409" fill="#DDDDDD"/>
<rect x="338.795" y="382.428" width="48.4409" height="52.6901" fill="#DDDDDD"/>
<rect x="387.236" y="384.978" width="48.4409" height="52.6901" fill="#DDDDDD"/>
<rect x="387.236" y="333.987" width="48.4409" height="52.6901" fill="#DDDDDD"/>
<rect x="387.236" y="282.997" width="48.4409" height="52.6901" fill="#DDDDDD"/>
<rect x="387.236" y="232.006" width="48.4409" height="52.6901" fill="#DDDDDD"/>
<rect x="435.678" y="241.354" width="48.4409" height="52.6901" fill="#DDDDDD"/>
<rect x="484.119" y="241.354" width="48.4409" height="52.6901" fill="#DDDDDD"/>
<rect x="484.119" y="289.795" width="48.4409" height="52.6901" fill="#DDDDDD"/>
<rect x="484.119" y="339.936" width="48.4409" height="52.6901" fill="#DDDDDD"/>
<rect x="435.678" y="333.137" width="48.4409" height="52.6901" fill="#DDDDDD"/>
<rect x="387.236" y="145.323" width="48.4409" height="52.6901" fill="#DDDDDD"/>
<rect x="339.645" y="435.118" width="48.4409" height="48.4409" fill="#DDDDDD"/>
<rect x="291.205" y="435.118" width="48.4409" height="48.4409" fill="#DDDDDD"/>
<rect x="242.764" y="435.118" width="48.4409" height="48.4409" fill="#DDDDDD"/>
<rect x="194.322" y="435.118" width="48.4409" height="48.4409" fill="#DDDDDD"/>
<rect x="145.881" y="386.677" width="48.4409" height="48.4409" fill="#DDDDDD"/>
<rect x="97.4414" y="386.677" width="48.4409" height="48.4409" fill="#DDDDDD"/>
<rect x="49" y="241.354" width="48.4409" height="48.4409" fill="#CACACA"/>
<rect x="145.881" y="338.236" width="48.4409" height="48.4409" fill="#CACACA"/>
<rect x="387.236" y="192.914" width="48.4409" height="48.4409" fill="#ACACAC"/>
<rect x="194.322" y="241.354" width="48.4409" height="48.4409" fill="#ACACAC"/>
<rect x="49" y="338.236" width="48.4409" height="48.4409" fill="#ACACAC"/>
<rect x="291.205" y="386.677" width="48.4409" height="48.4409" fill="#ACACAC"/>
<rect x="97.4414" y="289.795" width="48.4409" height="48.4409" fill="#ACACAC"/>
<rect x="194.322" y="483.559" width="48.4409" height="48.4409" fill="white"/>
<rect x="49" y="386.677" width="48.4409" height="48.4409" fill="white"/>
<rect x="49" y="192.914" width="48.4409" height="48.4409" fill="white"/>
<rect x="97.4414" y="145.323" width="48.4409" height="48.4409" fill="white"/>
<rect x="145.881" y="96.8818" width="48.4409" height="49.2907" fill="white"/>
<rect x="194.322" y="48.4409" width="48.4409" height="50.1406" fill="white"/>
<rect x="0.558594" y="241.354" width="48.4409" height="145.323" fill="white"/>
<rect x="97.4414" y="435.118" width="96.8818" height="48.4409" fill="white"/>
<rect x="242.764" y="483.559" width="48.4409" height="48.4409" fill="white"/>
<rect x="291.205" y="483.559" width="48.4409" height="48.4409" fill="white"/>
<rect x="339.645" y="483.559" width="48.4409" height="48.4409" fill="white"/>
<rect x="387.236" y="435.118" width="48.4409" height="48.4409" fill="white"/>
<rect x="435.678" y="435.118" width="50.1406" height="48.4409" fill="white"/>
<rect x="484.119" y="386.677" width="49.2907" height="48.4409" fill="white"/>
<rect x="484.119" y="192.914" width="49.2907" height="49.2907" fill="white"/>
<rect x="435.678" y="144.473" width="49.2907" height="48.4409" fill="white"/>
<rect x="388.086" y="96.8818" width="48.4409" height="48.4409" fill="white"/>
<rect x="339.645" y="48.4409" width="48.4409" height="48.4409" fill="white"/>
<rect x="242.764" width="96.8818" height="48.4409" fill="white"/>
<rect x="532.559" y="241.354" width="48.4409" height="146.173" fill="white"/>
<rect x="435.678" y="291.495" width="48.4409" height="48.4409" fill="#CACACA"/>
</svg>
