<svg width="337" height="223" viewBox="0 0 337 223" fill="none" xmlns="http://www.w3.org/2000/svg">
<path d="M138.252 40.7651C139.788 40.7651 141.194 40.8517 142.469 41.025V48.1307H142.295C137.455 47.3508 133.441 48.434 130.253 51.3803C127.094 54.2976 125.515 58.2115 125.515 63.122V87.2553H118.429V42.0215H125.515V50.947H125.732C127.036 47.7119 128.674 45.2133 130.645 43.4514C132.644 41.6605 135.18 40.7651 138.252 40.7651Z" fill="white"/>
<path d="M174.9 53.5466C174.9 49.1561 171.814 46.9609 165.64 46.9609C161.38 46.9609 158.38 47.6397 156.641 48.9973C154.903 50.3548 153.917 52.6945 153.685 56.0163H146.556C146.788 51.3658 148.454 47.6685 151.555 44.9245C154.685 42.1515 159.38 40.7651 165.64 40.7651C167.437 40.7651 169.104 40.9095 170.64 41.1983C172.205 41.4872 173.697 41.9782 175.117 42.6715C176.538 43.3647 177.74 44.2457 178.726 45.3144C179.711 46.3832 180.494 47.7552 181.073 49.4305C181.682 51.077 181.986 52.9545 181.986 55.0631V77.03C181.986 78.9942 182.319 80.3807 182.986 81.1895C183.653 81.9694 185.044 82.2438 187.159 82.0127V86.9953C185.739 87.4575 184.348 87.6886 182.986 87.6886C180.696 87.6886 178.929 87.2697 177.682 86.4321C176.436 85.5655 175.509 83.948 174.9 81.5794H174.726C171.596 86.201 166.452 88.5118 159.293 88.5118C154.743 88.5118 151.106 87.3275 148.382 84.9589C145.686 82.5904 144.339 79.4853 144.339 75.6436C144.339 73.6216 144.643 71.8452 145.252 70.3143C145.889 68.7834 146.715 67.5125 147.73 66.5015C148.744 65.4905 150.135 64.5951 151.903 63.8152C153.671 63.0064 155.439 62.371 157.207 61.9088C158.975 61.4466 161.163 60.97 163.771 60.479C168.002 59.6991 170.915 58.8759 172.509 58.0093C174.103 57.1428 174.9 55.6552 174.9 53.5466ZM160.032 82.2727C164.525 82.2727 168.118 81.2328 170.814 79.1531C173.538 77.0734 174.9 73.9538 174.9 69.7944V62.2121C173.741 63.3675 170.234 64.5518 164.38 65.7649C159.772 66.747 156.468 67.9313 154.468 69.3178C152.468 70.7043 151.468 72.6973 151.468 75.297C151.468 79.9474 154.323 82.2727 160.032 82.2727Z" fill="white"/>
<path d="M214.765 40.7651C216.88 40.7651 218.837 41.0683 220.634 41.6749C222.43 42.2526 224.039 43.1336 225.459 44.3179C226.879 45.4733 227.98 47.0331 228.763 48.9973C229.574 50.9325 229.98 53.1567 229.98 55.6697V87.2553H222.851V57.4461C222.851 54.2976 222.054 51.7702 220.46 49.8638C218.866 47.9285 216.373 46.9609 212.982 46.9609C209.012 46.9609 205.78 48.1018 203.288 50.3837C200.824 52.6367 199.593 55.5252 199.593 59.0492V87.2553H192.507V42.0215H199.593V47.3941H199.81C201.201 45.5166 203.143 43.9424 205.635 42.6715C208.157 41.4005 211.2 40.7651 214.765 40.7651Z" fill="white"/>
<path d="M257.499 166.683C257.499 162.292 254.412 160.097 248.239 160.097C243.978 160.097 240.979 160.776 239.24 162.134C237.501 163.491 236.516 165.831 236.284 169.153H229.154C229.386 164.502 231.053 160.805 234.154 158.061C237.284 155.288 241.979 153.901 248.239 153.901C250.036 153.901 251.702 154.046 253.238 154.335C254.803 154.624 256.296 155.115 257.716 155.808C259.136 156.501 260.339 157.382 261.324 158.451C262.31 159.52 263.092 160.892 263.672 162.567C264.28 164.213 264.585 166.091 264.585 168.199V190.166C264.585 192.131 264.918 193.517 265.585 194.326C266.251 195.106 267.642 195.38 269.758 195.149V200.132C268.338 200.594 266.947 200.825 265.585 200.825C263.295 200.825 261.527 200.406 260.281 199.568C259.035 198.702 258.107 197.084 257.499 194.716H257.325C254.195 199.337 249.05 201.648 241.892 201.648C237.342 201.648 233.704 200.464 230.98 198.095C228.285 195.727 226.937 192.622 226.937 188.78C226.937 186.758 227.241 184.982 227.85 183.451C228.488 181.92 229.314 180.649 230.328 179.638C231.342 178.627 232.733 177.731 234.501 176.952C236.269 176.143 238.037 175.507 239.805 175.045C241.573 174.583 243.761 174.106 246.369 173.615C250.601 172.835 253.514 172.012 255.108 171.146C256.702 170.279 257.499 168.792 257.499 166.683ZM242.631 195.409C247.123 195.409 250.717 194.369 253.412 192.289C256.136 190.21 257.499 187.09 257.499 182.931V175.348C256.339 176.504 252.832 177.688 246.978 178.901C242.37 179.883 239.066 181.068 237.066 182.454C235.067 183.841 234.067 185.834 234.067 188.433C234.067 193.084 236.921 195.409 242.631 195.409Z" fill="white"/>
<path d="M322.534 153.901C327.055 153.901 330.461 155.187 332.75 157.758C335.04 160.299 336.184 163.982 336.184 168.806V200.392H329.055V170.582C329.055 168.965 328.953 167.593 328.751 166.466C328.548 165.311 328.156 164.228 327.577 163.217C327.026 162.177 326.171 161.397 325.012 160.877C323.882 160.357 322.462 160.097 320.752 160.097C317.245 160.097 314.434 161.224 312.318 163.477C310.231 165.73 309.188 168.633 309.188 172.186V200.392H302.058V170.582C302.058 168.965 301.957 167.593 301.754 166.466C301.551 165.311 301.174 164.228 300.624 163.217C300.073 162.177 299.218 161.397 298.059 160.877C296.928 160.357 295.508 160.097 293.798 160.097C290.292 160.097 287.48 161.224 285.365 163.477C283.249 165.73 282.191 168.633 282.191 172.186V200.392H275.105V155.158H282.191V160.531H282.409C285.712 156.111 290.103 153.901 295.581 153.901C301.725 153.901 305.753 156.501 307.666 161.7H307.84C311.666 156.501 316.564 153.901 322.534 153.901Z" fill="white"/>
<path d="M91.7804 9.03864C92.208 8.60191 92.8046 8.38355 93.5701 8.38355C94.3726 8.38355 95.0035 8.60454 95.4628 9.04653C95.9221 9.48326 96.1518 10.0647 96.1518 10.7908C96.1518 11.5432 95.901 12.1536 95.3995 12.6219C94.9032 13.0849 94.2512 13.3165 93.4434 13.3165C92.7624 13.3165 92.208 13.0981 91.7804 12.6614C91.3528 12.2194 91.1389 11.6064 91.1389 10.8224C91.1389 10.0699 91.3528 9.47537 91.7804 9.03864Z" fill="white"/>
<path fill-rule="evenodd" clip-rule="evenodd" d="M0 0.739258H111.291V111.657H0V0.739258ZM79.2598 67.81C79.2598 75.0312 77.202 80.6782 73.0866 84.751C69.0001 88.7949 62.6821 90.8168 54.1324 90.8168C45.5828 90.8168 39.2502 88.7949 35.1348 84.751C31.0483 80.6782 29.0051 75.0312 29.0051 67.81V26.0424H39.6125V67.81C39.6125 72.576 40.8152 76.1 43.2207 78.3819C45.6262 80.6349 49.2635 81.7614 54.1324 81.7614C59.0593 81.7614 62.7256 80.6349 65.1311 78.3819C67.5366 76.1 68.7393 72.576 68.7393 67.81V26.0424H79.2598V67.81ZM95.1064 14.1689C95.6397 13.8742 96.0435 13.4664 96.3181 12.9455V12.9771C96.3128 13.3822 96.2917 13.7532 96.2547 14.0899C96.223 14.4267 96.1702 14.7713 96.0963 15.1239C96.0224 15.4764 95.9168 15.7842 95.7796 16.0473C95.6423 16.3104 95.4734 16.5498 95.2727 16.7655C95.0774 16.976 94.8293 17.1391 94.5283 17.2549C94.2327 17.3654 93.8975 17.4206 93.5226 17.4206C92.9049 17.4206 92.4192 17.268 92.0655 16.9629C91.717 16.6524 91.5059 16.2183 91.432 15.6606H89.9748C90.0593 16.5182 90.4209 17.2417 91.0598 17.831C91.6986 18.4204 92.5195 18.715 93.5226 18.715C94.9058 18.715 95.9591 18.2152 96.6824 17.2154C97.4109 16.2104 97.7752 14.774 97.7752 12.906C97.7752 11.9905 97.6986 11.1854 97.5455 10.4909C97.3924 9.79107 97.1522 9.18334 96.8249 8.66769C96.4976 8.15203 96.0594 7.76003 95.5103 7.49168C94.9665 7.22333 94.3198 7.08916 93.5701 7.08916C92.7835 7.08916 92.0892 7.26806 91.4874 7.62586C90.8908 7.97839 90.4394 8.44406 90.1332 9.02285C89.8323 9.59639 89.6818 10.2304 89.6818 10.925C89.6818 12.03 90.0171 12.9192 90.6876 13.5927C91.3633 14.2662 92.2397 14.603 93.3167 14.603C93.9766 14.603 94.5732 14.4583 95.1064 14.1689ZM99.0898 11.2249H100.555C100.555 9.33067 101.402 8.38355 103.097 8.38355C103.503 8.38355 103.854 8.44669 104.15 8.57297C104.446 8.69399 104.668 8.85974 104.815 9.07021C104.968 9.28068 105.077 9.49904 105.14 9.7253C105.209 9.95156 105.243 10.1936 105.243 10.4514C105.243 10.6145 105.23 10.7671 105.203 10.9092C105.182 11.0513 105.156 11.1802 105.124 11.2959C105.092 11.4117 105.037 11.5275 104.958 11.6432C104.879 11.759 104.807 11.8589 104.744 11.9431C104.681 12.0273 104.583 12.122 104.451 12.2273C104.319 12.3325 104.208 12.4193 104.118 12.4877C104.029 12.5561 103.889 12.6482 103.699 12.764C103.514 12.8797 103.361 12.9718 103.239 13.0402L102.693 13.348C102.455 13.4848 102.26 13.598 102.107 13.6874C99.8791 14.9871 98.7651 16.5866 98.7651 18.4861H106.534V17.1917H100.539V17.1602C100.634 16.8024 100.819 16.4683 101.093 16.1578C101.373 15.8421 101.698 15.5659 102.067 15.3291C102.437 15.087 102.833 14.8476 103.255 14.6108C103.678 14.3688 104.089 14.1136 104.491 13.8453C104.897 13.5769 105.267 13.2901 105.599 12.985C105.932 12.6745 106.199 12.3036 106.399 11.8721C106.6 11.4354 106.7 10.9566 106.7 10.4356C106.7 9.74635 106.534 9.14388 106.201 8.62822C105.869 8.11257 105.436 7.72846 104.902 7.4759C104.369 7.21807 103.778 7.08916 103.129 7.08916C102.453 7.08916 101.854 7.19702 101.331 7.41275C100.808 7.62322 100.386 7.91788 100.064 8.29673C99.7418 8.67032 99.4989 9.10441 99.3353 9.59902C99.1716 10.0936 99.0898 10.6356 99.0898 11.2249Z" fill="white"/>
<path d="M180.012 164.603C182.447 162.321 185.563 161.18 189.359 161.18C193.127 161.18 196.155 162.307 198.445 164.56C200.764 166.813 201.923 169.701 201.923 173.225H176.361C176.361 169.73 177.578 166.856 180.012 164.603Z" fill="white"/>
<path fill-rule="evenodd" clip-rule="evenodd" d="M111.291 111.657H222.581V222.575H111.291V111.657ZM205.185 121.906C206.225 121.906 207.083 122.259 207.759 122.964C208.435 123.669 208.773 124.545 208.773 125.592C208.773 126.376 208.593 127.078 208.234 127.699C207.881 128.32 207.397 128.799 206.785 129.136C206.178 129.467 205.499 129.633 204.75 129.633C204.127 129.633 203.559 129.538 203.047 129.349C202.535 129.159 202.113 128.904 201.78 128.583C201.448 128.257 201.186 127.889 200.996 127.478C200.811 127.068 200.711 126.636 200.695 126.184H202.152C202.184 126.473 202.253 126.739 202.358 126.981C202.464 127.223 202.612 127.449 202.802 127.66C202.997 127.87 203.253 128.036 203.57 128.157C203.892 128.278 204.264 128.339 204.686 128.339C205.478 128.339 206.115 128.099 206.595 127.62C207.075 127.142 207.316 126.465 207.316 125.592C207.316 124.787 207.094 124.187 206.65 123.792C206.207 123.398 205.605 123.201 204.845 123.201C203.763 123.201 202.947 123.55 202.398 124.25H200.846L202.01 118.236H208.171V119.53H203.19L202.532 122.908V122.94C203.14 122.251 204.024 121.906 205.185 121.906ZM211.576 122.143H210.111C210.111 121.554 210.193 121.012 210.357 120.517C210.52 120.022 210.763 119.588 211.085 119.215C211.407 118.836 211.83 118.541 212.352 118.331C212.875 118.115 213.474 118.007 214.15 118.007C214.799 118.007 215.391 118.136 215.924 118.394C216.457 118.646 216.89 119.031 217.222 119.546C217.555 120.062 217.721 120.664 217.721 121.354C217.721 121.875 217.621 122.353 217.42 122.79C217.22 123.222 216.953 123.593 216.621 123.903C216.288 124.208 215.918 124.495 215.512 124.763C215.111 125.032 214.699 125.287 214.277 125.529C213.854 125.766 213.458 126.005 213.089 126.247C212.719 126.484 212.394 126.76 212.115 127.076C211.84 127.386 211.655 127.72 211.56 128.078V128.11H217.555V129.404H209.786C209.786 127.505 210.9 125.905 213.128 124.605C213.281 124.516 213.477 124.403 213.714 124.266L214.261 123.958C214.382 123.89 214.535 123.798 214.72 123.682C214.91 123.566 215.05 123.474 215.14 123.406C215.23 123.337 215.34 123.25 215.472 123.145C215.604 123.04 215.702 122.945 215.765 122.861C215.829 122.777 215.9 122.677 215.979 122.561C216.058 122.445 216.114 122.33 216.145 122.214C216.177 122.098 216.204 121.969 216.225 121.827C216.251 121.685 216.264 121.533 216.264 121.369C216.264 121.112 216.23 120.87 216.161 120.643C216.098 120.417 215.99 120.199 215.837 119.988C215.689 119.778 215.467 119.612 215.171 119.491C214.876 119.365 214.525 119.302 214.118 119.302C212.423 119.302 211.576 120.249 211.576 122.143ZM142.365 145.929V200.392H152.972V145.929H173.274V136.96H121.976V145.929H142.365ZM194.489 193.329C193.011 193.849 191.359 194.109 189.533 194.109C185.534 194.109 182.331 192.78 179.926 190.123C177.549 187.437 176.361 184.115 176.361 180.158H211.269C211.269 171.897 209.415 165.441 205.705 160.79C201.995 156.14 196.547 153.815 189.359 153.815C182.519 153.815 177.085 155.967 173.057 160.271C169.028 164.574 167.014 170.409 167.014 177.775C167.014 184.967 169.057 190.759 173.144 195.149C177.23 199.54 182.78 201.735 189.794 201.735C195.358 201.735 199.909 200.348 203.444 197.575C206.98 194.802 209.357 191.134 210.574 186.57H201.227C200.995 187.35 200.619 188.144 200.097 188.953C199.604 189.733 198.909 190.527 198.01 191.336C197.141 192.145 195.967 192.809 194.489 193.329Z" fill="white"/>
</svg>
