<svg width="533" height="533" viewBox="0 0 533 533" fill="none" xmlns="http://www.w3.org/2000/svg">
<path fill-rule="evenodd" clip-rule="evenodd" d="M255.833 5.33722C252.721 9.77649 252.085 19.7522 252.042 64.7595C251.996 112.062 251.437 120.05 247.583 128.448C242.181 140.222 231.845 150.849 221.56 155.194C211.034 159.643 188.756 159.326 179.347 154.596C175.122 152.469 154.304 133.562 133.084 112.581C92.5763 72.5192 87.1407 69.1627 78.4014 78.8192C69.919 88.1923 72.8865 92.8284 113.906 134.314C135.62 156.272 154.527 177.239 155.922 180.91C162.563 198.374 157.281 223.207 143.915 237.363C131.526 250.481 123.421 251.984 64.7595 252.042C4.66733 252.099 0 253.144 0 266.5C0 279.856 4.66733 280.901 64.7595 280.958C123.421 281.016 131.526 282.519 143.915 295.637C157.281 309.793 162.563 334.626 155.922 352.09C154.527 355.761 135.62 376.728 113.906 398.686C72.5 440.561 69.17 445.866 78.8192 454.599C88.2091 463.098 92.9485 460.113 133.084 420.419C154.304 399.438 175.122 380.531 179.347 378.404C189.229 373.436 211.783 373.415 222.218 378.368C233.13 383.544 242.28 392.991 247.583 404.552C251.437 412.95 251.996 420.938 252.042 468.241C252.099 528.333 253.144 533 266.5 533C279.856 533 280.901 528.333 280.958 468.241C281.004 420.938 281.563 412.95 285.417 404.552C290.819 392.778 301.155 382.151 311.44 377.806C321.966 373.357 344.244 373.674 353.653 378.404C357.878 380.531 378.696 399.438 399.916 420.419C440.424 460.481 445.859 463.837 454.599 454.181C463.081 444.808 460.113 440.172 419.094 398.686C397.38 376.728 378.473 355.761 377.078 352.09C370.437 334.626 375.719 309.793 389.085 295.637C401.474 282.519 409.579 281.016 468.241 280.958C528.333 280.901 533 279.856 533 266.5C533 252.666 529.802 252.095 452.291 252.095C388.96 252.095 382.108 251.708 380.711 248.066C378.509 242.33 383.107 238.988 401.407 233.024C442.748 219.55 475.606 186.12 491.599 141.257C499.627 118.741 500.727 79.0401 493.933 57.0742C489.69 43.3555 489.645 43.3098 475.926 39.1275C454.529 32.6018 416.465 33.2693 394.214 40.5584C349.737 55.1295 313.481 90.1538 299.976 131.593C293.621 151.096 289.971 155.792 284.627 151.358C281.424 148.697 280.905 138.686 280.905 79.4698C280.905 3.31326 280.305 0 266.5 0C262.061 0 258.226 1.91834 255.833 5.33722ZM274.334 187.842C273.011 189.508 270.646 194.852 269.079 199.719C265.986 209.323 268.346 223.128 274.526 231.577C277.734 235.965 277.974 235.922 281.542 230.302C287.121 221.514 288.691 210.355 285.837 199.755C282.768 188.363 277.914 183.333 274.334 187.842ZM308.204 248.22C296.204 253.65 296.271 256.529 308.525 261.95C318.403 266.318 321.044 266.565 331.392 264.082C346.993 260.339 350.436 256.116 342.253 250.755C333.886 245.274 317.423 244.047 308.204 248.22Z" fill="#F5F5F5"/>
</svg>
