<svg width="745" height="225" viewBox="0 0 745 225" fill="none" xmlns="http://www.w3.org/2000/svg">
<path fill-rule="evenodd" clip-rule="evenodd" d="M109.201 2.24782C107.873 4.11746 107.602 8.31883 107.583 27.274C107.564 47.1959 107.325 50.5601 105.68 54.0971C103.374 59.0558 98.9626 63.5313 94.5722 65.3615C90.0794 67.2351 80.5701 67.1017 76.5539 65.1098C74.7502 64.2138 65.864 56.2509 56.8066 47.4144C39.5159 30.5421 37.1958 29.1285 33.4654 33.1955C29.8447 37.143 31.1114 39.0955 48.6204 56.5674C57.8888 65.8155 65.9593 74.6459 66.5547 76.192C69.3894 83.5472 67.1347 94.0057 61.4296 99.9675C56.1416 105.492 52.6818 106.125 27.6424 106.15C1.99224 106.174 0 106.614 0 112.239C0 117.864 1.99224 118.304 27.6424 118.328C52.6818 118.352 56.1416 118.986 61.4296 124.51C67.1347 130.473 69.3894 140.931 66.5547 148.286C65.9593 149.831 57.8888 158.662 48.6204 167.91C30.9464 185.546 29.525 187.781 33.6438 191.459C37.6518 195.038 39.6747 193.781 56.8066 177.063C65.864 168.227 74.7502 160.264 76.5539 159.368C80.7721 157.276 90.3992 157.267 94.853 159.354C99.5107 161.533 103.416 165.512 105.68 170.381C107.325 173.917 107.564 177.281 107.583 197.204C107.608 222.512 108.054 224.478 113.755 224.478C119.456 224.478 119.902 222.512 119.926 197.204C119.946 177.281 120.184 173.917 121.829 170.381C124.135 165.422 128.547 160.947 132.938 159.117C137.43 157.242 146.939 157.377 150.956 159.368C152.759 160.264 161.645 168.227 170.702 177.063C187.994 193.936 190.314 195.349 194.044 191.283C197.665 187.334 196.398 185.383 178.889 167.91C169.621 158.662 161.55 149.831 160.954 148.286C158.12 140.931 160.374 130.473 166.08 124.51C171.368 118.986 174.828 118.352 199.867 118.328C225.517 118.304 227.509 117.864 227.509 112.239C227.509 106.413 226.145 106.172 193.059 106.172C166.027 106.172 163.102 106.009 162.505 104.475C161.565 102.06 163.528 100.652 171.339 98.1403C188.985 92.4657 203.011 78.3863 209.838 59.4917C213.265 50.009 213.734 33.2884 210.834 24.0373C209.023 18.2595 209.003 18.2403 203.147 16.4788C194.014 13.7306 177.767 14.0117 168.269 17.0815C149.285 23.2183 133.809 37.9691 128.044 55.4218C125.332 63.6355 123.773 65.6133 121.493 63.7457C120.125 62.6253 119.904 58.4087 119.904 33.4694C119.904 1.3954 119.647 0 113.755 0C111.86 0 110.223 0.807925 109.201 2.24782ZM117.099 79.1113C116.534 79.813 115.525 82.0638 114.855 84.1135C113.536 88.1582 114.543 93.9723 117.181 97.5306C118.55 99.379 118.652 99.3608 120.175 96.9937C122.556 93.2928 123.227 88.5929 122.008 84.1286C120.699 79.3306 118.627 77.2124 117.099 79.1113ZM131.556 104.54C126.434 106.827 126.463 108.04 131.693 110.323C135.909 112.163 137.037 112.266 141.454 111.221C148.113 109.644 149.582 107.866 146.09 105.608C142.519 103.299 135.491 102.783 131.556 104.54Z" fill="#FF7315"/>
<path d="M344.745 146.058V162.426H269.837V147.24L320.289 89.1918H270.693V72.8238H343.034V88.5169L292.584 146.058H344.745ZM396.644 164.114C370.478 164.114 352.863 145.045 352.863 117.034C352.863 90.7105 371.333 71.1364 396.131 71.1364C409.813 71.1364 420.929 76.3674 428.625 85.6482C436.15 94.9291 438.545 105.729 438.545 115.346C438.545 117.541 438.373 119.903 438.203 122.266H371.846C372.359 126.821 373.214 130.702 374.754 133.909C378.859 142.515 386.383 147.408 397.157 147.408C410.155 147.408 418.021 141.502 420.758 130.702H438.203C433.585 152.47 418.363 164.114 396.644 164.114ZM372.188 109.61H419.561C418.877 96.2789 410.326 86.1545 396.131 86.1545C385.87 86.1545 379.029 91.5542 374.754 100.329C373.556 102.86 372.702 106.066 372.188 109.61ZM472.978 162.426H454.164V72.8238H472.978V85.9857C477.081 75.8612 484.606 72.8238 492.644 72.8238H502.906V91.8917H488.198C479.476 91.8917 472.978 95.9416 472.978 107.247V162.426ZM527.688 40.7628H546.5V72.8238H571.811V89.3605H546.5V139.308C546.5 144.202 548.553 145.72 552.486 145.72H571.811V162.257L542.909 162.426C533.161 162.426 527.688 156.858 527.688 147.24V89.3605H511.441V72.8238H527.688V40.7628ZM598.167 40.7628H616.98V72.8238H642.291V89.3605H616.98V139.308C616.98 144.202 619.032 145.72 622.965 145.72H642.291V162.257L613.389 162.426C603.64 162.426 598.167 156.858 598.167 147.24V89.3605H581.92V72.8238H598.167V40.7628ZM694.261 164.114C668.095 164.114 650.48 145.045 650.48 117.034C650.48 90.7105 668.95 71.1364 693.748 71.1364C707.43 71.1364 718.546 76.3674 726.242 85.6482C733.767 94.9291 736.162 105.729 736.162 115.346C736.162 117.541 735.99 119.903 735.82 122.266H669.463C669.976 126.821 670.831 130.702 672.371 133.909C676.474 142.515 684 147.408 694.774 147.408C707.772 147.408 715.638 141.502 718.375 130.702H735.82C731.201 152.47 715.98 164.114 694.261 164.114ZM669.805 109.61H717.178C716.494 96.2789 707.943 86.1545 693.748 86.1545C683.487 86.1545 676.646 91.5542 672.371 100.329C671.173 102.86 670.319 106.066 669.805 109.61Z" fill="#FF7315"/>
<path d="M715.128 32.1636V47.7415H712.805V32.1636H706.883V30.0438H721.074V32.1636H715.128ZM733.35 47.7415H731.352L725.431 33.7165V47.7415H723.108V30.0438H726.281L732.351 44.2413L738.447 30.0438H741.594V47.7415H739.27V33.6918L733.35 47.7415Z" fill="#FF7315"/>
</svg>
