<svg width="74" height="73" viewBox="0 0 74 73" fill="none" xmlns="http://www.w3.org/2000/svg">
<path fill-rule="evenodd" clip-rule="evenodd" d="M35.3256 0.729291C34.8959 1.33589 34.8081 2.699 34.8021 8.84891C34.7958 15.3125 34.7186 16.404 34.1865 17.5515C33.4406 19.1603 32.0134 20.6124 30.5931 21.2062C29.1398 21.8141 26.0636 21.7708 24.7644 21.1245C24.1809 20.8338 21.3063 18.2503 18.3764 15.3833C12.783 9.90922 12.0325 9.45059 10.8257 10.7701C9.65447 12.0508 10.0642 12.6843 15.7282 18.353C18.7265 21.3535 21.3372 24.2185 21.5298 24.7201C22.4468 27.1064 21.7174 30.4996 19.8719 32.4339C18.1612 34.2264 17.042 34.4318 8.94203 34.4397C0.644469 34.4476 0 34.5903 0 36.4153C0 38.2403 0.644469 38.3831 8.94203 38.3909C17.042 38.3987 18.1612 38.6042 19.8719 40.3966C21.7174 42.3311 22.4468 45.7242 21.5298 48.1105C21.3372 48.612 18.7265 51.477 15.7282 54.4775C10.0108 60.1995 9.55105 60.9245 10.8834 62.1177C12.18 63.279 12.8344 62.8711 18.3764 57.4471C21.3063 54.5803 24.1809 51.9969 24.7644 51.706C26.1289 51.0274 29.2432 51.0245 30.684 51.7014C32.1907 52.4083 33.4542 53.6993 34.1865 55.2791C34.7186 56.4265 34.7958 57.518 34.8021 63.9817C34.8101 72.1927 34.9543 72.8306 36.7985 72.8306C38.6427 72.8306 38.787 72.1927 38.7949 63.9817C38.8014 57.518 38.8783 56.4265 39.4105 55.2791C40.1564 53.6702 41.5838 52.2184 43.004 51.6245C44.4572 51.0164 47.5332 51.06 48.8328 51.706C49.4161 51.9969 52.2906 54.5803 55.2205 57.4471C60.814 62.9214 61.5646 63.3799 62.7714 62.0606C63.9427 60.7796 63.5327 60.1463 57.8686 54.4775C54.8707 51.477 52.2598 48.612 52.0671 48.1105C51.1504 45.7242 51.8795 42.3311 53.7251 40.3966C55.4357 38.6042 56.5551 38.3987 64.655 38.3909C72.9525 38.3831 73.597 38.2403 73.597 36.4153C73.597 34.525 73.1555 34.4469 62.4527 34.4469C53.7079 34.4469 52.7618 34.3941 52.5688 33.8964C52.2648 33.1127 52.8997 32.656 55.4264 31.8411C61.1349 30 65.672 25.432 67.8804 19.3018C68.989 16.2251 69.1409 10.8002 68.2026 7.79877C67.6168 5.9242 67.6103 5.91796 65.716 5.34647C62.7617 4.45481 57.5059 4.54602 54.4334 5.54201C48.292 7.53303 43.2858 12.3189 41.4208 17.9813C40.5435 20.6462 40.0393 21.2879 39.3016 20.6819C38.8594 20.3184 38.7878 18.9504 38.7878 10.859C38.7878 0.452731 38.7047 0 36.7985 0C36.1855 0 35.6561 0.262127 35.3256 0.729291ZM37.8803 25.6672C37.6977 25.8949 37.3711 26.6252 37.1545 27.2902C36.7276 28.6024 37.0535 30.4888 37.9068 31.6433C38.3498 32.243 38.3827 32.237 38.8755 31.4691C39.6458 30.2683 39.8628 28.7435 39.4685 27.2951C39.0449 25.7384 38.3745 25.0511 37.8803 25.6672ZM42.5571 33.9174C40.9002 34.6595 40.9095 35.0528 42.6015 35.7937C43.9651 36.3905 44.33 36.4242 45.7588 36.085C47.9132 35.5733 48.3884 34.9964 47.2586 34.2638C46.1033 33.5149 43.8301 33.3472 42.5571 33.9174Z" fill="#FF7315"/>
</svg>
